<svg width="659" height="1011" viewBox="0 0 659 1011" fill="none" xmlns="http://www.w3.org/2000/svg">
<path d="M112.806 224.25C133.134 212.514 159.126 219.479 170.862 239.806L265.439 403.618C277.175 423.945 270.21 449.938 249.883 461.674C229.555 473.41 203.563 466.445 191.827 446.118L97.25 282.306C85.5139 261.979 92.4786 235.986 112.806 224.25Z" fill="#B9A8A9"/>
<path d="M243.806 166.25C264.134 154.514 290.126 161.479 301.862 181.806L396.439 345.618C408.175 365.945 401.21 391.938 380.883 403.674C360.555 415.41 334.563 408.445 322.827 388.118L228.25 224.306C216.514 203.979 223.479 177.986 243.806 166.25Z" fill="#B9A8A9"/>
<path d="M437.5 259.5C442.5 257.5 629.026 184.143 652.5 215.5C673.257 243.227 631.362 270.046 603 286.5C578.765 300.559 431.5 375.5 405 427C383.8 468.2 250.167 446.5 186 430.5C228.833 345.667 339.1 192.7 437.5 259.5Z" fill="#B9A8A9"/>
<path d="M112.806 224.25C133.134 212.514 159.126 219.479 170.862 239.806L265.439 403.618C277.175 423.945 270.21 449.938 249.883 461.674C229.555 473.41 203.563 466.445 191.827 446.118L97.25 282.306C85.5139 261.979 92.4786 235.986 112.806 224.25Z" stroke="#B9A8A9"/>
<path d="M243.806 166.25C264.134 154.514 290.126 161.479 301.862 181.806L396.439 345.618C408.175 365.945 401.21 391.938 380.883 403.674C360.555 415.41 334.563 408.445 322.827 388.118L228.25 224.306C216.514 203.979 223.479 177.986 243.806 166.25Z" stroke="#B9A8A9"/>
<path d="M437.5 259.5C442.5 257.5 629.026 184.143 652.5 215.5C673.257 243.227 631.362 270.046 603 286.5C578.765 300.559 431.5 375.5 405 427C383.8 468.2 250.167 446.5 186 430.5C228.833 345.667 339.1 192.7 437.5 259.5Z" stroke="#B9A8A9"/>
<mask id="mask0_13_90" style="mask-type:alpha" maskUnits="userSpaceOnUse" x="91" y="160" width="568" height="308">
<path d="M112.806 224.25C133.134 212.514 159.126 219.479 170.862 239.806L265.439 403.618C277.175 423.945 270.21 449.938 249.883 461.674C229.555 473.41 203.563 466.445 191.827 446.118L97.25 282.306C85.5139 261.979 92.4786 235.986 112.806 224.25Z" fill="#B9A8A9"/>
<path d="M243.806 166.25C264.134 154.514 290.126 161.479 301.862 181.806L396.439 345.618C408.175 365.945 401.21 391.938 380.883 403.674C360.555 415.41 334.563 408.445 322.827 388.118L228.25 224.306C216.514 203.979 223.479 177.986 243.806 166.25Z" fill="#B9A8A9"/>
<path d="M437.5 259.5C442.5 257.5 629.026 184.143 652.5 215.5C673.257 243.227 631.362 270.046 603 286.5C578.765 300.559 431.5 375.5 405 427C383.8 468.2 250.167 446.5 186 430.5C228.833 345.667 339.1 192.7 437.5 259.5Z" fill="#B9A8A9"/>
<path d="M112.806 224.25C133.134 212.514 159.126 219.479 170.862 239.806L265.439 403.618C277.175 423.945 270.21 449.938 249.883 461.674C229.555 473.41 203.563 466.445 191.827 446.118L97.25 282.306C85.5139 261.979 92.4786 235.986 112.806 224.25Z" stroke="#B9A8A9"/>
<path d="M243.806 166.25C264.134 154.514 290.126 161.479 301.862 181.806L396.439 345.618C408.175 365.945 401.21 391.938 380.883 403.674C360.555 415.41 334.563 408.445 322.827 388.118L228.25 224.306C216.514 203.979 223.479 177.986 243.806 166.25Z" stroke="#B9A8A9"/>
<path d="M437.5 259.5C442.5 257.5 629.026 184.143 652.5 215.5C673.257 243.227 631.362 270.046 603 286.5C578.765 300.559 431.5 375.5 405 427C383.8 468.2 250.167 446.5 186 430.5C228.833 345.667 339.1 192.7 437.5 259.5Z" stroke="#B9A8A9"/>
</mask>
<g mask="url(#mask0_13_90)">
<path d="M212.5 163C182 285 238.5 387.142 409 432.642V444H90.5V163H212.5Z" fill="url(#paint0_linear_13_90)"/>
<path d="M283 161C262 185.868 262 202.5 293.5 260.5L243.5 276L212.5 202.5C212.5 202.5 304 136.132 283 161Z" fill="url(#paint1_linear_13_90)"/>
<path d="M542 218.5L638.5 263L684 245.5L641.5 189.5L542 218.5Z" fill="#575050"/>
</g>
<path d="M61.2275 486.569C57.9065 456.935 81.097 431 110.916 431H529.084C558.903 431 582.094 456.935 578.772 486.569L524.979 966.569C522.144 991.87 500.75 1011 475.29 1011H164.71C139.25 1011 117.856 991.87 115.021 966.569L61.2275 486.569Z" fill="#5EA143"/>
<mask id="mask1_13_90" style="mask-type:alpha" maskUnits="userSpaceOnUse" x="60" y="431" width="520" height="580">
<path d="M61.2275 486.569C57.9065 456.935 81.097 431 110.916 431H529.084C558.903 431 582.094 456.935 578.772 486.569L524.979 966.569C522.144 991.87 500.75 1011 475.29 1011H164.71C139.25 1011 117.856 991.87 115.021 966.569L61.2275 486.569Z" fill="#5EA143"/>
</mask>
<g mask="url(#mask1_13_90)">
<path d="M180.621 431C180.621 431 220 861 500 1009.37V1048H105.096L35 431H180.621Z" fill="url(#paint2_linear_13_90)"/>
</g>
<circle cx="370.273" cy="247.273" r="67.5" transform="rotate(7.04916 370.273 247.273)" fill="url(#paint3_linear_13_90)"/>
<mask id="mask2_13_90" style="mask-type:alpha" maskUnits="userSpaceOnUse" x="302" y="179" width="136" height="136">
<circle cx="370.273" cy="247.273" r="67.5" transform="rotate(7.04916 370.273 247.273)" fill="url(#paint4_linear_13_90)"/>
</mask>
<g mask="url(#mask2_13_90)">
<circle cx="323.37" cy="280.267" r="75" transform="rotate(7.04916 323.37 280.267)" fill="white"/>
</g>
<circle cx="244.319" cy="297.319" r="67.5" transform="rotate(7.04916 244.319 297.319)" fill="url(#paint5_linear_13_90)"/>
<mask id="mask3_13_90" style="mask-type:alpha" maskUnits="userSpaceOnUse" x="176" y="229" width="136" height="136">
<circle cx="244.319" cy="297.319" r="67.5" transform="rotate(7.04916 244.319 297.319)" fill="url(#paint6_linear_13_90)"/>
</mask>
<g mask="url(#mask3_13_90)">
<circle cx="197.415" cy="330.312" r="75" transform="rotate(7.04916 197.415 330.312)" fill="white"/>
</g>
<circle cx="251" cy="285" r="17" fill="black"/>
<circle cx="356" cy="244" r="17" fill="black"/>
<path d="M4.99999 287.981C-3.28429 273.632 1.63197 255.284 15.9807 247L423.013 12C437.361 3.71573 455.709 8.63198 463.993 22.9808C472.278 37.3295 467.361 55.6772 453.013 63.9615L45.9808 298.962C31.632 307.246 13.2843 302.33 4.99999 287.981Z" fill="#5EA143"/>
<path d="M105.823 138.756C107.381 122.683 116.605 108.353 130.589 100.28L237.576 38.5104C251.561 30.4366 268.583 29.6134 283.281 36.3L338.161 61.2668L100.004 198.767L105.823 138.756Z" fill="#5EA143"/>
<mask id="mask4_13_90" style="mask-type:alpha" maskUnits="userSpaceOnUse" x="100" y="31" width="239" height="168">
<path d="M105.823 138.756C107.381 122.683 116.605 108.353 130.589 100.28L237.576 38.5104C251.561 30.4366 268.583 29.6134 283.281 36.3L338.161 61.2668L100.004 198.767L105.823 138.756Z" fill="#5EA143"/>
</mask>
<g mask="url(#mask4_13_90)">
<path d="M96.4022 142.192C95.8246 124.021 105.155 106.969 120.77 97.6584L260.432 14.3827L183 431L98.044 193.836L96.4022 142.192Z" fill="url(#paint7_linear_13_90)"/>
</g>
<rect x="195" y="564" width="250" height="60" rx="30" fill="white"/>
<rect x="195" y="815" width="250" height="60" rx="30" fill="white"/>
<path d="M210.783 796.587L323.47 661.101C332.97 649.68 347.056 643.074 361.912 643.074L426.813 643.074L319.145 777.801C309.657 789.674 295.284 796.587 280.086 796.587L210.783 796.587Z" fill="white"/>
<defs>
<linearGradient id="paint0_linear_13_90" x1="249.75" y1="155.424" x2="249.75" y2="444" gradientUnits="userSpaceOnUse">
<stop stop-color="#B9A8A9"/>
<stop offset="1" stop-color="#575050"/>
</linearGradient>
<linearGradient id="paint1_linear_13_90" x1="249.75" y1="155.424" x2="249.75" y2="444" gradientUnits="userSpaceOnUse">
<stop stop-color="#B9A8A9"/>
<stop offset="1" stop-color="#575050"/>
</linearGradient>
<linearGradient id="paint2_linear_13_90" x1="267.5" y1="431" x2="267.5" y2="1048" gradientUnits="userSpaceOnUse">
<stop stop-color="#5EA143"/>
<stop offset="1" stop-color="#AFC000"/>
</linearGradient>
<linearGradient id="paint3_linear_13_90" x1="349.773" y1="282.773" x2="437.773" y2="179.773" gradientUnits="userSpaceOnUse">
<stop stop-color="white"/>
<stop offset="1" stop-color="#B9A8A9"/>
</linearGradient>
<linearGradient id="paint4_linear_13_90" x1="388.273" y1="247.773" x2="450.773" y2="164.773" gradientUnits="userSpaceOnUse">
<stop stop-color="white"/>
<stop offset="1" stop-color="#B9A8A9"/>
</linearGradient>
<linearGradient id="paint5_linear_13_90" x1="223.819" y1="332.819" x2="311.819" y2="229.819" gradientUnits="userSpaceOnUse">
<stop stop-color="white"/>
<stop offset="1" stop-color="#B9A8A9"/>
</linearGradient>
<linearGradient id="paint6_linear_13_90" x1="262.319" y1="297.819" x2="324.819" y2="214.819" gradientUnits="userSpaceOnUse">
<stop stop-color="white"/>
<stop offset="1" stop-color="#B9A8A9"/>
</linearGradient>
<linearGradient id="paint7_linear_13_90" x1="173.047" y1="-1.73743" x2="145.629" y2="187.927" gradientUnits="userSpaceOnUse">
<stop stop-color="#5EA143"/>
<stop offset="1" stop-color="#AFC000"/>
</linearGradient>
</defs>
</svg>
